<svg width="30" height="42" viewBox="0 0 30 42" fill="none" xmlns="http://www.w3.org/2000/svg">
<path d="M4.58332 0.166656H25.4167C26.5217 0.166656 27.5815 0.605643 28.3629 1.38704C29.1443 2.16845 29.5833 3.22825 29.5833 4.33332V14.75H0.416656V4.33332C0.416656 3.22825 0.855643 2.16845 1.63704 1.38704C2.41845 0.605643 3.47825 0.166656 4.58332 0.166656ZM29.5833 35.5833C29.5833 36.6884 29.1443 37.7482 28.3629 38.5296C27.5815 39.311 26.5217 39.75 25.4167 39.75V41.8333H21.25V39.75H8.74999V41.8333H4.58332V39.75C3.47825 39.75 2.41845 39.311 1.63704 38.5296C0.855643 37.7482 0.416656 36.6884 0.416656 35.5833V16.8333H29.5833V35.5833ZM6.66666 6.41666V10.5833H10.8333V6.41666H6.66666ZM6.66666 21V27.25H10.8333V21H6.66666Z" fill="#444444"/>
</svg>
